<?xml version="1.0" encoding="UTF-8"?>
<svg xmlns="http://www.w3.org/2000/svg" version="1.1" viewBox="0 0 31.2 62.4">
  <!-- Logo mark only: cerveny stit + modry pruh + bily lev (bez textu) -->
  <defs>
    <style>
      .st0 { fill: #00469b; }
      .st2 { fill: #fff; }
      .st3 { fill: #d70c0f; }
    </style>
  </defs>
  <g>
    <rect class="st3" width="28.1" height="62.4"/>
    <rect class="st0" x="28.1" width="3.1" height="62.4"/>
    <g>
      <path class="st2" d="M13.9,20.6s-.4-.1-.5-.5c-.1-.5.2-.7.2-.7-.4-.2-.9-.6-1.4-1l-1.9.3c-1.7.3-2.2,1.6,0,4.3h-2.4c0-.6-.2-.9-.3-1.2-.4-.7-1-.6-1.6-.1.3.2.5.4.7.7.2.3.3.5.3.6-.4-.3-1.2-.5-1.5-.5-.4,0-.8.4-.8,1.1,0,0,.5-.1,1.1,0,.3,0,.8.2.8.2-.3,0-.6.3-.8.5-.5.5-.3,1,.3,1.5,0-.3.3-.6.7-1s.4-.4.6-.5c.4.1.8.2,1.1.3.2.5-.2,1.1-.2,1.1.7.2,1.4-.4,1.4-.9,1.3.2,2.4,0,3.1-.2l-1.4-3.2s1.7-.1,2.5-.7Z"/>
      <path class="st2" d="M6.2,10.3l.8.7c-.1.5-.8.8-.8.8.5.5,1.3.4,1.7,0l2.1,2.1c.2-1,.6-1.5,1.2-2-1.7-1.2-3.9-2.3-3.9-2.3.4-.4.5-.8.6-1.1.2-.8-.3-1.1-1-1.2,0,.3,0,.7,0,.9,0,.3-.1.5-.2.7,0-.5-.4-1.2-.7-1.4-.3-.2-.8-.3-1.4.2,0,0,.5.3.8.8.2.3.4.7.4.7-.2-.1-.6-.2-.9-.2-.7,0-.9.5-.8,1.3.3-.2.7-.3,1.2-.3s.6,0,.8.1Z"/>
      <path class="st2" d="M25.2,15.6h-1c0-.1,0-.3,0-.4,0-1.5-.5-2.6-1.2-3.4,0,0-.5.4-.7.6.6.7,1,1.6,1,2.8s0,.3,0,.4h-1.1c0,.3.3.8.9,1-.3,1-.8,2-1.4,2.7-.9-1.1-1.5-2.6-1.5-4.2s1.2-3.2,2.4-4.2c.1,0,.3-.2.5-.4.3.3.7.6.9,1.1,0,0,.7-.3.7-.9s-.6-.6-1.1-.6c.5-.6,1.1-1.3,1.1-2.2s-.6-1.5-1.4-1.5c-1.2,0-1.3,1.2-1.3,1.5,0,0,.3-.3.7-.3s.7.2.7.8-.5,1.1-1.5,2c-1.1,1-2.6,2.3-2.6,4.8s0,.3,0,.4h-1.1c0,.4.5,1,1.3,1.1.4,1.9,1.5,3.3,1.7,3.4-.2.2-.5.5-1.2.5s-1.2-.3-1.7-1c0,0,0-.1,0-.2,0-1.8-.6-3.9-1.7-5.2h1.8c0-1-.4-2-1.5-3h1c0-2.1-1.5-2.8-1.6-2.9.9-.2,1.3-1,1.3-1.4h-4.6s-.5.6-1.5,1c0,.7.5,1.2.9,1.5.4-.6.9-.7,1.2-.7.4,0,.8.2.8.6s-.2.6-.5.6-.5-.1-.9-.1c-.9,0-.8.9-.8.9h1.6c.1,1.2-2.8,1.2-2.9,3.5-2.6.7-4.2,1.6-4.2,1.6,0-.5-.2-.9-.4-1.1-.5-.6-1.1-.5-1.5,0,.3.2.5.3.7.6.2.3.3.4.4.6-.4-.3-1.2-.4-1.5-.4-.4,0-.8.4-.7,1.2,0,0,.5-.1,1-.1s.9.1.9.1c-.3,0-.5.3-.7.5-.4.6-.2,1,.4,1.5,0-.3.3-.8.6-1.1.2-.2.4-.4.6-.5h1c.3.3.1,1,.1,1,.7,0,1.2-.8,1.1-1.3l3.2-.4c1.1,1.4,2.8,2.3,3.2,2.5l-.9,3.3c-.4,1.4-.1,2.4.9,2.6.6.1,1.5,0,1.5,0l-1.1,2.3c-.5-.3-.9-.4-1.2-.4-.8,0-1.1.5-.9,1.2.3-.1.6-.2,1-.2s.4,0,.7,0c-.5.2-1.1.7-1.2.9-.2.3-.1.9.5,1.3,0,0,.1-.5.6-1,.2-.3.6-.6.6-.6,0,.3,0,.6,0,.9.2.7.5.8,1.4.6-.2-.3-.4-.5-.5-1.1,0-.3-.1-.6,0-.8.2-.2.5-.5.9-.8.5.1.8.8.8.8.5-.5.5-1.3,0-1.7.9-.9,1.8-2,1.8-3.1h-2.7s.9-.8,1.2-2.4c.5.5,1.2.7,1.8.7s1.2-.3,1.6-.6v1.8c.8,0,1.5-1.1.9-2,1.3.7,2.1-.2,2.1-.7h-2c.3-.4,1.2-1.7,1.6-3.3.7-.1,1.1-.7,1.1-1.1ZM13.8,8.3c-.3,0-.5-.2-.5-.7h1.3c0,.3-.4.7-.7.7Z"/>
      <path class="st2" d="M11.1,10.3h.8c0-.5-.5-.6-1-.7-.4-.1-.7-.4-.7-1.1s0-.8.5-1.1c-.7,0-1.5.5-1.5,1.4s.5,1.6,1.9,1.6Z"/>
      <path class="st2" d="M14.8,6.3h2l1.4-2.7c-.5-.4-1.6-.2-1.6.6s.1.5.1.7c0,.4-.3.5-.7.5-.7,0-1-.5-1-1h.2c.4.4.8.1.8-.3s-.3-.6-.6-.5h-.3s.1-.3.1-.3c.2-.5-.1-.7-.5-1-.4.2-.7.5-.5,1v.3c.1,0-.2,0-.2,0-.3,0-.6.2-.6.5s.4.7.8.4h.2c0,.3-.3.8-1,.8s-.7-.1-.7-.5.1-.4.1-.7c0-.8-1.1-1-1.6-.6l1.4,2.7h2Z"/>
      <path class="st2" d="M18.8,10.8c0,.6.7.9.7.9.3-.4,1.1-1.3,1.6-1.7-.7-.6-1-1-1-1.5s.3-.8.7-.8.7.3.7.3c0-.3-.1-1.5-1.3-1.5s-1.4.6-1.4,1.5.5,1.7,1.1,2.2c-.5,0-1.1,0-1.1.6Z"/>
    </g>
  </g>
</svg>
